<?xml version="1.0" encoding="UTF-8" standalone="no"?>
<!DOCTYPE svg PUBLIC "-//W3C//DTD SVG 1.1//EN" "http://www.w3.org/Graphics/SVG/1.1/DTD/svg11.dtd">
<svg version="1.1" xmlns="http://www.w3.org/2000/svg" xmlns:xlink="http://www.w3.org/1999/xlink" preserveAspectRatio="xMidYMid meet" viewBox="-1 -1 464 303.99999999999994" width="460" height="300"><defs><path d="M360 100L460 100L460 200L360 200L360 100Z" id="b7qWF12mhq"></path><path d="M445.51 0L460 0L460 200L445.51 200L445.51 0Z" id="h8xjFaNxq"></path><path d="M240 100L340 100L340 200L240 200L240 100Z" id="a2o1iDHaC4"></path><path d="M120 100L220 100L220 200L120 200L120 100Z" id="a1asd2bSAG"></path><path d="M0 100L100 100L100 200L0 200L0 100Z" id="a15yGk5FGB"></path><path d="M85.51 100L100 100L100 300L85.51 300L85.51 100Z" id="c753MAyGLz"></path></defs><g><g><use xlink:href="#b7qWF12mhq" opacity="1" fill="#000000" fill-opacity="1"></use></g><g><use xlink:href="#h8xjFaNxq" opacity="1" fill="#000000" fill-opacity="1"></use></g><g><use xlink:href="#a2o1iDHaC4" opacity="1" fill="#000000" fill-opacity="1"></use></g><g><use xlink:href="#a1asd2bSAG" opacity="1" fill="#000000" fill-opacity="1"></use></g><g><use xlink:href="#a15yGk5FGB" opacity="1" fill="#000000" fill-opacity="1"></use></g><g><use xlink:href="#c753MAyGLz" opacity="1" fill="#000000" fill-opacity="1"></use></g></g></svg>